<mxfile host="app.diagrams.net" modified="2023-06-12T11:27:16.710Z" agent="Mozilla/5.0 (Windows NT 10.0; Win64; x64) AppleWebKit/537.36 (KHTML, like Gecko) Chrome/114.0.0.0 Safari/537.36" etag="GZyD-FR8Yz_PYCZxzHJq" version="21.3.8" type="device" pages="2">
  <diagram name="INSCRIPCION " id="k53DbLzWp4du2d7bk4vW">
    <mxGraphModel dx="880" dy="1576" grid="1" gridSize="10" guides="1" tooltips="1" connect="1" arrows="1" fold="1" page="1" pageScale="1" pageWidth="850" pageHeight="1100" math="0" shadow="0">
      <root>
        <mxCell id="06mVKD0Vo4z_6J86-GRU-0" />
        <mxCell id="06mVKD0Vo4z_6J86-GRU-1" parent="06mVKD0Vo4z_6J86-GRU-0" />
        <mxCell id="06mVKD0Vo4z_6J86-GRU-2" value="" style="rounded=0;whiteSpace=wrap;html=1;fillColor=#d5e8d4;strokeColor=#82b366;" parent="06mVKD0Vo4z_6J86-GRU-1" vertex="1">
          <mxGeometry width="850" height="610" as="geometry" />
        </mxCell>
        <mxCell id="06mVKD0Vo4z_6J86-GRU-3" value="PROCESO DE INSCRIPCION A UNA MATERIA EN TEMPORADA" style="rounded=0;whiteSpace=wrap;html=1;" parent="06mVKD0Vo4z_6J86-GRU-1" vertex="1">
          <mxGeometry y="-100" width="850" height="50" as="geometry" />
        </mxCell>
        <mxCell id="06mVKD0Vo4z_6J86-GRU-4" value="" style="rounded=0;whiteSpace=wrap;html=1;fillColor=#dbeaff;strokeColor=#6c8ebf;" parent="06mVKD0Vo4z_6J86-GRU-1" vertex="1">
          <mxGeometry y="-18" width="410" height="628" as="geometry" />
        </mxCell>
        <mxCell id="06mVKD0Vo4z_6J86-GRU-5" value="INICIO" style="ellipse;whiteSpace=wrap;html=1;" parent="06mVKD0Vo4z_6J86-GRU-1" vertex="1">
          <mxGeometry x="165" y="10" width="80" height="40" as="geometry" />
        </mxCell>
        <mxCell id="06mVKD0Vo4z_6J86-GRU-6" value="Información de requisitos" style="rounded=0;whiteSpace=wrap;html=1;" parent="06mVKD0Vo4z_6J86-GRU-1" vertex="1">
          <mxGeometry x="145" y="70" width="120" height="60" as="geometry" />
        </mxCell>
        <mxCell id="06mVKD0Vo4z_6J86-GRU-7" value="Llenado de formulario de inscripción con datos personales" style="rounded=0;whiteSpace=wrap;html=1;" parent="06mVKD0Vo4z_6J86-GRU-1" vertex="1">
          <mxGeometry x="145" y="160" width="120" height="60" as="geometry" />
        </mxCell>
        <mxCell id="06mVKD0Vo4z_6J86-GRU-8" value="Envio de información" style="rounded=0;whiteSpace=wrap;html=1;" parent="06mVKD0Vo4z_6J86-GRU-1" vertex="1">
          <mxGeometry x="145" y="340" width="120" height="60" as="geometry" />
        </mxCell>
        <mxCell id="06mVKD0Vo4z_6J86-GRU-11" value="Selección de materias a inscribirse" style="rounded=0;whiteSpace=wrap;html=1;" parent="06mVKD0Vo4z_6J86-GRU-1" vertex="1">
          <mxGeometry x="145" y="250" width="120" height="60" as="geometry" />
        </mxCell>
        <mxCell id="06mVKD0Vo4z_6J86-GRU-13" value="FIN" style="ellipse;whiteSpace=wrap;html=1;" parent="06mVKD0Vo4z_6J86-GRU-1" vertex="1">
          <mxGeometry x="165" y="560" width="75" height="40" as="geometry" />
        </mxCell>
        <mxCell id="06mVKD0Vo4z_6J86-GRU-14" value="" style="endArrow=classic;html=1;rounded=0;exitX=0.5;exitY=1;exitDx=0;exitDy=0;entryX=0.5;entryY=0;entryDx=0;entryDy=0;" parent="06mVKD0Vo4z_6J86-GRU-1" source="06mVKD0Vo4z_6J86-GRU-5" target="06mVKD0Vo4z_6J86-GRU-6" edge="1">
          <mxGeometry width="50" height="50" relative="1" as="geometry">
            <mxPoint x="400" y="150" as="sourcePoint" />
            <mxPoint x="450" y="100" as="targetPoint" />
          </mxGeometry>
        </mxCell>
        <mxCell id="06mVKD0Vo4z_6J86-GRU-15" value="" style="endArrow=classic;html=1;rounded=0;exitX=0.5;exitY=1;exitDx=0;exitDy=0;entryX=0.5;entryY=0;entryDx=0;entryDy=0;" parent="06mVKD0Vo4z_6J86-GRU-1" source="06mVKD0Vo4z_6J86-GRU-6" target="06mVKD0Vo4z_6J86-GRU-7" edge="1">
          <mxGeometry width="50" height="50" relative="1" as="geometry">
            <mxPoint x="400" y="150" as="sourcePoint" />
            <mxPoint x="450" y="100" as="targetPoint" />
          </mxGeometry>
        </mxCell>
        <mxCell id="06mVKD0Vo4z_6J86-GRU-16" value="" style="endArrow=classic;html=1;rounded=0;exitX=0.5;exitY=1;exitDx=0;exitDy=0;entryX=0.5;entryY=0;entryDx=0;entryDy=0;" parent="06mVKD0Vo4z_6J86-GRU-1" source="06mVKD0Vo4z_6J86-GRU-7" target="06mVKD0Vo4z_6J86-GRU-11" edge="1">
          <mxGeometry width="50" height="50" relative="1" as="geometry">
            <mxPoint x="400" y="150" as="sourcePoint" />
            <mxPoint x="450" y="100" as="targetPoint" />
          </mxGeometry>
        </mxCell>
        <mxCell id="06mVKD0Vo4z_6J86-GRU-17" value="" style="endArrow=classic;html=1;rounded=0;exitX=0.5;exitY=1;exitDx=0;exitDy=0;" parent="06mVKD0Vo4z_6J86-GRU-1" source="06mVKD0Vo4z_6J86-GRU-11" target="06mVKD0Vo4z_6J86-GRU-8" edge="1">
          <mxGeometry width="50" height="50" relative="1" as="geometry">
            <mxPoint x="400" y="250" as="sourcePoint" />
            <mxPoint x="450" y="200" as="targetPoint" />
          </mxGeometry>
        </mxCell>
        <mxCell id="06mVKD0Vo4z_6J86-GRU-18" value="" style="endArrow=classic;html=1;rounded=0;exitX=1;exitY=0.5;exitDx=0;exitDy=0;entryX=0;entryY=0.5;entryDx=0;entryDy=0;entryPerimeter=0;" parent="06mVKD0Vo4z_6J86-GRU-1" source="06mVKD0Vo4z_6J86-GRU-8" target="5O94gV4dbkaZtNfYtmuk-1" edge="1">
          <mxGeometry width="50" height="50" relative="1" as="geometry">
            <mxPoint x="400" y="250" as="sourcePoint" />
            <mxPoint x="490" y="60" as="targetPoint" />
            <Array as="points">
              <mxPoint x="340" y="370" />
              <mxPoint x="340" y="60" />
            </Array>
          </mxGeometry>
        </mxCell>
        <mxCell id="06mVKD0Vo4z_6J86-GRU-19" value="Notificación de error en la inscripción&amp;nbsp;" style="rounded=0;whiteSpace=wrap;html=1;" parent="06mVKD0Vo4z_6J86-GRU-1" vertex="1">
          <mxGeometry x="690" y="240" width="120" height="60" as="geometry" />
        </mxCell>
        <mxCell id="06mVKD0Vo4z_6J86-GRU-20" value="Notificación de inscripción exitosa&amp;nbsp;" style="rounded=0;whiteSpace=wrap;html=1;" parent="06mVKD0Vo4z_6J86-GRU-1" vertex="1">
          <mxGeometry x="522.5" y="335" width="120" height="60" as="geometry" />
        </mxCell>
        <mxCell id="06mVKD0Vo4z_6J86-GRU-22" value="" style="endArrow=classic;html=1;rounded=0;exitX=1;exitY=0.5;exitDx=0;exitDy=0;exitPerimeter=0;entryX=0.5;entryY=0;entryDx=0;entryDy=0;" parent="06mVKD0Vo4z_6J86-GRU-1" source="5O94gV4dbkaZtNfYtmuk-1" target="5O94gV4dbkaZtNfYtmuk-2" edge="1">
          <mxGeometry width="50" height="50" relative="1" as="geometry">
            <mxPoint x="555" y="100" as="sourcePoint" />
            <mxPoint x="555" y="130" as="targetPoint" />
            <Array as="points">
              <mxPoint x="583" y="60" />
            </Array>
          </mxGeometry>
        </mxCell>
        <mxCell id="06mVKD0Vo4z_6J86-GRU-23" value="" style="endArrow=classic;html=1;rounded=0;exitX=0.5;exitY=1;exitDx=0;exitDy=0;entryX=0.5;entryY=0;entryDx=0;entryDy=0;" parent="06mVKD0Vo4z_6J86-GRU-1" source="5O94gV4dbkaZtNfYtmuk-2" target="5O94gV4dbkaZtNfYtmuk-3" edge="1">
          <mxGeometry width="50" height="50" relative="1" as="geometry">
            <mxPoint x="555" y="190" as="sourcePoint" />
            <mxPoint x="555" y="230" as="targetPoint" />
          </mxGeometry>
        </mxCell>
        <mxCell id="06mVKD0Vo4z_6J86-GRU-24" value="" style="endArrow=classic;html=1;rounded=0;exitX=0.5;exitY=1;exitDx=0;exitDy=0;" parent="06mVKD0Vo4z_6J86-GRU-1" source="5O94gV4dbkaZtNfYtmuk-3" target="06mVKD0Vo4z_6J86-GRU-20" edge="1">
          <mxGeometry width="50" height="50" relative="1" as="geometry">
            <mxPoint x="555" y="310" as="sourcePoint" />
            <mxPoint x="450" y="200" as="targetPoint" />
          </mxGeometry>
        </mxCell>
        <mxCell id="06mVKD0Vo4z_6J86-GRU-25" value="" style="endArrow=classic;html=1;rounded=0;exitX=0.5;exitY=1;exitDx=0;exitDy=0;entryX=1;entryY=0.5;entryDx=0;entryDy=0;" parent="06mVKD0Vo4z_6J86-GRU-1" source="06mVKD0Vo4z_6J86-GRU-19" target="lbkRqEyDonlm2bG8fIUy-12" edge="1">
          <mxGeometry width="50" height="50" relative="1" as="geometry">
            <mxPoint x="400" y="250" as="sourcePoint" />
            <mxPoint x="450" y="200" as="targetPoint" />
            <Array as="points">
              <mxPoint x="750" y="490" />
            </Array>
          </mxGeometry>
        </mxCell>
        <mxCell id="06mVKD0Vo4z_6J86-GRU-26" value="" style="endArrow=classic;html=1;rounded=0;exitX=0.5;exitY=1;exitDx=0;exitDy=0;entryX=0.5;entryY=0;entryDx=0;entryDy=0;" parent="06mVKD0Vo4z_6J86-GRU-1" source="06mVKD0Vo4z_6J86-GRU-20" target="lbkRqEyDonlm2bG8fIUy-12" edge="1">
          <mxGeometry width="50" height="50" relative="1" as="geometry">
            <mxPoint x="400" y="350" as="sourcePoint" />
            <mxPoint x="450" y="300" as="targetPoint" />
            <Array as="points">
              <mxPoint x="583" y="430" />
              <mxPoint x="203" y="430" />
            </Array>
          </mxGeometry>
        </mxCell>
        <mxCell id="06mVKD0Vo4z_6J86-GRU-27" value="ESTUDIANTE&amp;nbsp;" style="rounded=0;whiteSpace=wrap;html=1;" parent="06mVKD0Vo4z_6J86-GRU-1" vertex="1">
          <mxGeometry y="-50" width="410" height="50" as="geometry" />
        </mxCell>
        <mxCell id="06mVKD0Vo4z_6J86-GRU-28" value="KARDEX" style="rounded=0;whiteSpace=wrap;html=1;" parent="06mVKD0Vo4z_6J86-GRU-1" vertex="1">
          <mxGeometry x="410" y="-50" width="440" height="50" as="geometry" />
        </mxCell>
        <mxCell id="lbkRqEyDonlm2bG8fIUy-0" value="P1" style="text;html=1;strokeColor=none;fillColor=none;align=center;verticalAlign=middle;whiteSpace=wrap;rounded=0;" parent="06mVKD0Vo4z_6J86-GRU-1" vertex="1">
          <mxGeometry x="80" y="80" width="60" height="30" as="geometry" />
        </mxCell>
        <mxCell id="lbkRqEyDonlm2bG8fIUy-1" value="P5" style="text;html=1;strokeColor=none;fillColor=none;align=center;verticalAlign=middle;whiteSpace=wrap;rounded=0;" parent="06mVKD0Vo4z_6J86-GRU-1" vertex="1">
          <mxGeometry x="457.5" y="145" width="60" height="30" as="geometry" />
        </mxCell>
        <mxCell id="lbkRqEyDonlm2bG8fIUy-3" value="P4" style="text;html=1;strokeColor=none;fillColor=none;align=center;verticalAlign=middle;whiteSpace=wrap;rounded=0;" parent="06mVKD0Vo4z_6J86-GRU-1" vertex="1">
          <mxGeometry x="80" y="475" width="60" height="30" as="geometry" />
        </mxCell>
        <mxCell id="lbkRqEyDonlm2bG8fIUy-5" value="P2" style="text;html=1;strokeColor=none;fillColor=none;align=center;verticalAlign=middle;whiteSpace=wrap;rounded=0;" parent="06mVKD0Vo4z_6J86-GRU-1" vertex="1">
          <mxGeometry x="80" y="175" width="60" height="30" as="geometry" />
        </mxCell>
        <mxCell id="lbkRqEyDonlm2bG8fIUy-7" value="P7" style="text;html=1;strokeColor=none;fillColor=none;align=center;verticalAlign=middle;whiteSpace=wrap;rounded=0;" parent="06mVKD0Vo4z_6J86-GRU-1" vertex="1">
          <mxGeometry x="750" y="205" width="60" height="30" as="geometry" />
        </mxCell>
        <mxCell id="lbkRqEyDonlm2bG8fIUy-8" value="P6" style="text;html=1;strokeColor=none;fillColor=none;align=center;verticalAlign=middle;whiteSpace=wrap;rounded=0;" parent="06mVKD0Vo4z_6J86-GRU-1" vertex="1">
          <mxGeometry x="457.5" y="255" width="60" height="30" as="geometry" />
        </mxCell>
        <mxCell id="lbkRqEyDonlm2bG8fIUy-10" value="SI" style="text;html=1;strokeColor=none;fillColor=none;align=center;verticalAlign=middle;whiteSpace=wrap;rounded=0;" parent="06mVKD0Vo4z_6J86-GRU-1" vertex="1">
          <mxGeometry x="600" y="80" width="60" height="30" as="geometry" />
        </mxCell>
        <mxCell id="lbkRqEyDonlm2bG8fIUy-12" value="Materias inscritas" style="rounded=0;whiteSpace=wrap;html=1;" parent="06mVKD0Vo4z_6J86-GRU-1" vertex="1">
          <mxGeometry x="142.5" y="460" width="120" height="60" as="geometry" />
        </mxCell>
        <mxCell id="lbkRqEyDonlm2bG8fIUy-13" value="" style="endArrow=classic;html=1;rounded=0;exitX=0.5;exitY=1;exitDx=0;exitDy=0;entryX=0.5;entryY=0;entryDx=0;entryDy=0;" parent="06mVKD0Vo4z_6J86-GRU-1" source="lbkRqEyDonlm2bG8fIUy-12" target="06mVKD0Vo4z_6J86-GRU-13" edge="1">
          <mxGeometry width="50" height="50" relative="1" as="geometry">
            <mxPoint x="400" y="610" as="sourcePoint" />
            <mxPoint x="450" y="560" as="targetPoint" />
          </mxGeometry>
        </mxCell>
        <mxCell id="5O94gV4dbkaZtNfYtmuk-0" value="P10&lt;br&gt;" style="text;html=1;strokeColor=none;fillColor=none;align=center;verticalAlign=middle;whiteSpace=wrap;rounded=0;" parent="06mVKD0Vo4z_6J86-GRU-1" vertex="1">
          <mxGeometry x="260" y="450" width="60" height="30" as="geometry" />
        </mxCell>
        <mxCell id="5O94gV4dbkaZtNfYtmuk-1" value="Registro de inscripción" style="shape=cylinder3;whiteSpace=wrap;html=1;boundedLbl=1;backgroundOutline=1;size=15;" parent="06mVKD0Vo4z_6J86-GRU-1" vertex="1">
          <mxGeometry x="457.5" y="20" width="75" height="80" as="geometry" />
        </mxCell>
        <mxCell id="5O94gV4dbkaZtNfYtmuk-2" value="Cumple con los requisitos?" style="rhombus;whiteSpace=wrap;html=1;" parent="06mVKD0Vo4z_6J86-GRU-1" vertex="1">
          <mxGeometry x="517.5" y="120" width="130" height="80" as="geometry" />
        </mxCell>
        <mxCell id="5O94gV4dbkaZtNfYtmuk-3" value="Habilitación de la Incripción" style="rounded=0;whiteSpace=wrap;html=1;" parent="06mVKD0Vo4z_6J86-GRU-1" vertex="1">
          <mxGeometry x="522.5" y="230" width="120" height="60" as="geometry" />
        </mxCell>
        <mxCell id="5O94gV4dbkaZtNfYtmuk-4" value="" style="endArrow=classic;html=1;rounded=0;entryX=0.5;entryY=0;entryDx=0;entryDy=0;exitX=1;exitY=0.5;exitDx=0;exitDy=0;" parent="06mVKD0Vo4z_6J86-GRU-1" source="5O94gV4dbkaZtNfYtmuk-2" target="06mVKD0Vo4z_6J86-GRU-19" edge="1">
          <mxGeometry width="50" height="50" relative="1" as="geometry">
            <mxPoint x="400" y="250" as="sourcePoint" />
            <mxPoint x="450" y="200" as="targetPoint" />
            <Array as="points">
              <mxPoint x="750" y="160" />
            </Array>
          </mxGeometry>
        </mxCell>
        <mxCell id="5O94gV4dbkaZtNfYtmuk-5" value="P3" style="text;html=1;strokeColor=none;fillColor=none;align=center;verticalAlign=middle;whiteSpace=wrap;rounded=0;" parent="06mVKD0Vo4z_6J86-GRU-1" vertex="1">
          <mxGeometry x="80" y="260" width="60" height="30" as="geometry" />
        </mxCell>
      </root>
    </mxGraphModel>
  </diagram>
  <diagram name="CERTIFICADO " id="i2iAl3kcokby1rmjvg9L">
    <mxGraphModel dx="880" dy="1576" grid="1" gridSize="10" guides="1" tooltips="1" connect="1" arrows="1" fold="1" page="1" pageScale="1" pageWidth="850" pageHeight="1100" math="0" shadow="0">
      <root>
        <mxCell id="P0RO1G9cVQHnkUmIbz9D-0" />
        <mxCell id="P0RO1G9cVQHnkUmIbz9D-1" parent="P0RO1G9cVQHnkUmIbz9D-0" />
        <mxCell id="P0RO1G9cVQHnkUmIbz9D-2" value="" style="rounded=0;whiteSpace=wrap;html=1;fillColor=#d5e8d4;strokeColor=#82b366;" parent="P0RO1G9cVQHnkUmIbz9D-1" vertex="1">
          <mxGeometry width="850" height="630" as="geometry" />
        </mxCell>
        <mxCell id="P0RO1G9cVQHnkUmIbz9D-3" value="PROCESO DE POSTULACIÓN DE BECA COMEDOR" style="rounded=0;whiteSpace=wrap;html=1;" parent="P0RO1G9cVQHnkUmIbz9D-1" vertex="1">
          <mxGeometry y="-100" width="850" height="50" as="geometry" />
        </mxCell>
        <mxCell id="P0RO1G9cVQHnkUmIbz9D-4" value="" style="rounded=0;whiteSpace=wrap;html=1;fillColor=#dbeaff;strokeColor=#6c8ebf;" parent="P0RO1G9cVQHnkUmIbz9D-1" vertex="1">
          <mxGeometry width="410" height="630" as="geometry" />
        </mxCell>
        <mxCell id="P0RO1G9cVQHnkUmIbz9D-5" value="INICIO" style="ellipse;whiteSpace=wrap;html=1;" parent="P0RO1G9cVQHnkUmIbz9D-1" vertex="1">
          <mxGeometry x="165" y="10" width="80" height="40" as="geometry" />
        </mxCell>
        <mxCell id="P0RO1G9cVQHnkUmIbz9D-6" value="Obtención de requistos" style="rounded=0;whiteSpace=wrap;html=1;" parent="P0RO1G9cVQHnkUmIbz9D-1" vertex="1">
          <mxGeometry x="145" y="70" width="120" height="60" as="geometry" />
        </mxCell>
        <mxCell id="P0RO1G9cVQHnkUmIbz9D-7" value="Llenado de formulario de datos personales" style="rounded=0;whiteSpace=wrap;html=1;" parent="P0RO1G9cVQHnkUmIbz9D-1" vertex="1">
          <mxGeometry x="142.5" y="230" width="120" height="60" as="geometry" />
        </mxCell>
        <mxCell id="P0RO1G9cVQHnkUmIbz9D-8" value="Envio de informacion" style="rounded=0;whiteSpace=wrap;html=1;" parent="P0RO1G9cVQHnkUmIbz9D-1" vertex="1">
          <mxGeometry x="142.5" y="320" width="120" height="60" as="geometry" />
        </mxCell>
        <mxCell id="P0RO1G9cVQHnkUmIbz9D-9" value="Tiene todos los requisitos?" style="rhombus;whiteSpace=wrap;html=1;" parent="P0RO1G9cVQHnkUmIbz9D-1" vertex="1">
          <mxGeometry x="490" y="20" width="130" height="80" as="geometry" />
        </mxCell>
        <mxCell id="P0RO1G9cVQHnkUmIbz9D-10" value="Revisión de requisitos" style="rounded=0;whiteSpace=wrap;html=1;" parent="P0RO1G9cVQHnkUmIbz9D-1" vertex="1">
          <mxGeometry x="495" y="130" width="120" height="60" as="geometry" />
        </mxCell>
        <mxCell id="P0RO1G9cVQHnkUmIbz9D-13" value="FIN" style="ellipse;whiteSpace=wrap;html=1;" parent="P0RO1G9cVQHnkUmIbz9D-1" vertex="1">
          <mxGeometry x="165" y="560" width="75" height="40" as="geometry" />
        </mxCell>
        <mxCell id="P0RO1G9cVQHnkUmIbz9D-14" value="" style="endArrow=classic;html=1;rounded=0;exitX=0.5;exitY=1;exitDx=0;exitDy=0;entryX=0.5;entryY=0;entryDx=0;entryDy=0;" parent="P0RO1G9cVQHnkUmIbz9D-1" source="P0RO1G9cVQHnkUmIbz9D-5" target="P0RO1G9cVQHnkUmIbz9D-6" edge="1">
          <mxGeometry width="50" height="50" relative="1" as="geometry">
            <mxPoint x="400" y="150" as="sourcePoint" />
            <mxPoint x="450" y="100" as="targetPoint" />
          </mxGeometry>
        </mxCell>
        <mxCell id="P0RO1G9cVQHnkUmIbz9D-15" value="" style="endArrow=classic;html=1;rounded=0;exitX=0.5;exitY=1;exitDx=0;exitDy=0;" parent="P0RO1G9cVQHnkUmIbz9D-1" source="P0RO1G9cVQHnkUmIbz9D-6" target="pPDkaiGAVWgl9LRCpvdI-0" edge="1">
          <mxGeometry width="50" height="50" relative="1" as="geometry">
            <mxPoint x="400" y="150" as="sourcePoint" />
            <mxPoint x="450" y="100" as="targetPoint" />
          </mxGeometry>
        </mxCell>
        <mxCell id="P0RO1G9cVQHnkUmIbz9D-16" value="" style="endArrow=classic;html=1;rounded=0;exitX=0.5;exitY=1;exitDx=0;exitDy=0;entryX=0.5;entryY=0;entryDx=0;entryDy=0;" parent="P0RO1G9cVQHnkUmIbz9D-1" source="P0RO1G9cVQHnkUmIbz9D-7" target="P0RO1G9cVQHnkUmIbz9D-8" edge="1">
          <mxGeometry width="50" height="50" relative="1" as="geometry">
            <mxPoint x="400" y="150" as="sourcePoint" />
            <mxPoint x="205" y="250" as="targetPoint" />
          </mxGeometry>
        </mxCell>
        <mxCell id="P0RO1G9cVQHnkUmIbz9D-18" value="" style="endArrow=classic;html=1;rounded=0;exitX=1;exitY=0.5;exitDx=0;exitDy=0;entryX=0;entryY=0.5;entryDx=0;entryDy=0;" parent="P0RO1G9cVQHnkUmIbz9D-1" source="P0RO1G9cVQHnkUmIbz9D-8" target="P0RO1G9cVQHnkUmIbz9D-9" edge="1">
          <mxGeometry width="50" height="50" relative="1" as="geometry">
            <mxPoint x="400" y="250" as="sourcePoint" />
            <mxPoint x="450" y="200" as="targetPoint" />
            <Array as="points">
              <mxPoint x="340" y="350" />
              <mxPoint x="340" y="60" />
            </Array>
          </mxGeometry>
        </mxCell>
        <mxCell id="P0RO1G9cVQHnkUmIbz9D-19" value="Notificacion de error" style="rounded=0;whiteSpace=wrap;html=1;" parent="P0RO1G9cVQHnkUmIbz9D-1" vertex="1">
          <mxGeometry x="690" y="130" width="120" height="60" as="geometry" />
        </mxCell>
        <mxCell id="P0RO1G9cVQHnkUmIbz9D-20" value="Notificación de aprobacion" style="rounded=0;whiteSpace=wrap;html=1;" parent="P0RO1G9cVQHnkUmIbz9D-1" vertex="1">
          <mxGeometry x="495" y="240" width="120" height="60" as="geometry" />
        </mxCell>
        <mxCell id="P0RO1G9cVQHnkUmIbz9D-21" value="" style="endArrow=classic;html=1;rounded=0;exitX=1;exitY=0.5;exitDx=0;exitDy=0;entryX=0.5;entryY=0;entryDx=0;entryDy=0;" parent="P0RO1G9cVQHnkUmIbz9D-1" source="P0RO1G9cVQHnkUmIbz9D-9" target="P0RO1G9cVQHnkUmIbz9D-19" edge="1">
          <mxGeometry width="50" height="50" relative="1" as="geometry">
            <mxPoint x="400" y="250" as="sourcePoint" />
            <mxPoint x="450" y="200" as="targetPoint" />
            <Array as="points">
              <mxPoint x="750" y="60" />
            </Array>
          </mxGeometry>
        </mxCell>
        <mxCell id="P0RO1G9cVQHnkUmIbz9D-22" value="" style="endArrow=classic;html=1;rounded=0;exitX=0.5;exitY=1;exitDx=0;exitDy=0;" parent="P0RO1G9cVQHnkUmIbz9D-1" source="P0RO1G9cVQHnkUmIbz9D-9" target="P0RO1G9cVQHnkUmIbz9D-10" edge="1">
          <mxGeometry width="50" height="50" relative="1" as="geometry">
            <mxPoint x="400" y="250" as="sourcePoint" />
            <mxPoint x="450" y="200" as="targetPoint" />
          </mxGeometry>
        </mxCell>
        <mxCell id="P0RO1G9cVQHnkUmIbz9D-23" value="" style="endArrow=classic;html=1;rounded=0;exitX=0.5;exitY=1;exitDx=0;exitDy=0;entryX=0.5;entryY=0;entryDx=0;entryDy=0;" parent="P0RO1G9cVQHnkUmIbz9D-1" source="P0RO1G9cVQHnkUmIbz9D-10" target="P0RO1G9cVQHnkUmIbz9D-20" edge="1">
          <mxGeometry width="50" height="50" relative="1" as="geometry">
            <mxPoint x="400" y="250" as="sourcePoint" />
            <mxPoint x="555" y="230" as="targetPoint" />
          </mxGeometry>
        </mxCell>
        <mxCell id="P0RO1G9cVQHnkUmIbz9D-25" value="" style="endArrow=classic;html=1;rounded=0;exitX=0.5;exitY=1;exitDx=0;exitDy=0;entryX=1;entryY=0.5;entryDx=0;entryDy=0;" parent="P0RO1G9cVQHnkUmIbz9D-1" source="P0RO1G9cVQHnkUmIbz9D-19" target="P0RO1G9cVQHnkUmIbz9D-40" edge="1">
          <mxGeometry width="50" height="50" relative="1" as="geometry">
            <mxPoint x="400" y="250" as="sourcePoint" />
            <mxPoint x="450" y="200" as="targetPoint" />
            <Array as="points">
              <mxPoint x="750" y="490" />
            </Array>
          </mxGeometry>
        </mxCell>
        <mxCell id="P0RO1G9cVQHnkUmIbz9D-26" value="" style="endArrow=classic;html=1;rounded=0;exitX=0.5;exitY=1;exitDx=0;exitDy=0;entryX=0.5;entryY=0;entryDx=0;entryDy=0;" parent="P0RO1G9cVQHnkUmIbz9D-1" source="P0RO1G9cVQHnkUmIbz9D-20" target="P0RO1G9cVQHnkUmIbz9D-40" edge="1">
          <mxGeometry width="50" height="50" relative="1" as="geometry">
            <mxPoint x="400" y="350" as="sourcePoint" />
            <mxPoint x="450" y="300" as="targetPoint" />
            <Array as="points">
              <mxPoint x="555" y="430" />
              <mxPoint x="203" y="430" />
            </Array>
          </mxGeometry>
        </mxCell>
        <mxCell id="P0RO1G9cVQHnkUmIbz9D-27" value="ESTUDIANTE&amp;nbsp;" style="rounded=0;whiteSpace=wrap;html=1;" parent="P0RO1G9cVQHnkUmIbz9D-1" vertex="1">
          <mxGeometry y="-50" width="410" height="50" as="geometry" />
        </mxCell>
        <mxCell id="P0RO1G9cVQHnkUmIbz9D-28" value="KARDEX" style="rounded=0;whiteSpace=wrap;html=1;" parent="P0RO1G9cVQHnkUmIbz9D-1" vertex="1">
          <mxGeometry x="410" y="-50" width="440" height="50" as="geometry" />
        </mxCell>
        <mxCell id="P0RO1G9cVQHnkUmIbz9D-29" value="P1" style="text;html=1;strokeColor=none;fillColor=none;align=center;verticalAlign=middle;whiteSpace=wrap;rounded=0;" parent="P0RO1G9cVQHnkUmIbz9D-1" vertex="1">
          <mxGeometry x="85" y="40" width="60" height="30" as="geometry" />
        </mxCell>
        <mxCell id="P0RO1G9cVQHnkUmIbz9D-30" value="P1" style="text;html=1;strokeColor=none;fillColor=none;align=center;verticalAlign=middle;whiteSpace=wrap;rounded=0;" parent="P0RO1G9cVQHnkUmIbz9D-1" vertex="1">
          <mxGeometry x="435" y="145" width="60" height="30" as="geometry" />
        </mxCell>
        <mxCell id="P0RO1G9cVQHnkUmIbz9D-31" value="P1" style="text;html=1;strokeColor=none;fillColor=none;align=center;verticalAlign=middle;whiteSpace=wrap;rounded=0;" parent="P0RO1G9cVQHnkUmIbz9D-1" vertex="1">
          <mxGeometry x="457.5" y="20" width="60" height="30" as="geometry" />
        </mxCell>
        <mxCell id="P0RO1G9cVQHnkUmIbz9D-32" value="P4" style="text;html=1;strokeColor=none;fillColor=none;align=center;verticalAlign=middle;whiteSpace=wrap;rounded=0;" parent="P0RO1G9cVQHnkUmIbz9D-1" vertex="1">
          <mxGeometry x="85" y="310" width="60" height="30" as="geometry" />
        </mxCell>
        <mxCell id="P0RO1G9cVQHnkUmIbz9D-33" value="P3" style="text;html=1;strokeColor=none;fillColor=none;align=center;verticalAlign=middle;whiteSpace=wrap;rounded=0;" parent="P0RO1G9cVQHnkUmIbz9D-1" vertex="1">
          <mxGeometry x="85" y="220" width="60" height="30" as="geometry" />
        </mxCell>
        <mxCell id="P0RO1G9cVQHnkUmIbz9D-34" value="P2" style="text;html=1;strokeColor=none;fillColor=none;align=center;verticalAlign=middle;whiteSpace=wrap;rounded=0;" parent="P0RO1G9cVQHnkUmIbz9D-1" vertex="1">
          <mxGeometry x="85" y="130" width="60" height="30" as="geometry" />
        </mxCell>
        <mxCell id="P0RO1G9cVQHnkUmIbz9D-35" value="P1" style="text;html=1;strokeColor=none;fillColor=none;align=center;verticalAlign=middle;whiteSpace=wrap;rounded=0;" parent="P0RO1G9cVQHnkUmIbz9D-1" vertex="1">
          <mxGeometry x="435" y="365" width="60" height="30" as="geometry" />
        </mxCell>
        <mxCell id="P0RO1G9cVQHnkUmIbz9D-36" value="P1" style="text;html=1;strokeColor=none;fillColor=none;align=center;verticalAlign=middle;whiteSpace=wrap;rounded=0;" parent="P0RO1G9cVQHnkUmIbz9D-1" vertex="1">
          <mxGeometry x="457.5" y="255" width="60" height="30" as="geometry" />
        </mxCell>
        <mxCell id="P0RO1G9cVQHnkUmIbz9D-37" value="P1" style="text;html=1;strokeColor=none;fillColor=none;align=center;verticalAlign=middle;whiteSpace=wrap;rounded=0;" parent="P0RO1G9cVQHnkUmIbz9D-1" vertex="1">
          <mxGeometry x="630" y="145" width="60" height="30" as="geometry" />
        </mxCell>
        <mxCell id="P0RO1G9cVQHnkUmIbz9D-38" value="SI" style="text;html=1;strokeColor=none;fillColor=none;align=center;verticalAlign=middle;whiteSpace=wrap;rounded=0;" parent="P0RO1G9cVQHnkUmIbz9D-1" vertex="1">
          <mxGeometry x="540" y="90" width="60" height="30" as="geometry" />
        </mxCell>
        <mxCell id="P0RO1G9cVQHnkUmIbz9D-39" value="NO" style="text;html=1;strokeColor=none;fillColor=none;align=center;verticalAlign=middle;whiteSpace=wrap;rounded=0;" parent="P0RO1G9cVQHnkUmIbz9D-1" vertex="1">
          <mxGeometry x="600" y="30" width="60" height="30" as="geometry" />
        </mxCell>
        <mxCell id="P0RO1G9cVQHnkUmIbz9D-40" value="Finalizacion de&amp;nbsp; proceso de solicitud de beca comedor" style="rounded=0;whiteSpace=wrap;html=1;" parent="P0RO1G9cVQHnkUmIbz9D-1" vertex="1">
          <mxGeometry x="122.5" y="460" width="160" height="60" as="geometry" />
        </mxCell>
        <mxCell id="P0RO1G9cVQHnkUmIbz9D-41" value="" style="endArrow=classic;html=1;rounded=0;exitX=0.5;exitY=1;exitDx=0;exitDy=0;entryX=0.5;entryY=0;entryDx=0;entryDy=0;" parent="P0RO1G9cVQHnkUmIbz9D-1" source="P0RO1G9cVQHnkUmIbz9D-40" target="P0RO1G9cVQHnkUmIbz9D-13" edge="1">
          <mxGeometry width="50" height="50" relative="1" as="geometry">
            <mxPoint x="400" y="610" as="sourcePoint" />
            <mxPoint x="450" y="560" as="targetPoint" />
          </mxGeometry>
        </mxCell>
        <mxCell id="pPDkaiGAVWgl9LRCpvdI-0" value="Presentacion de documentos" style="rounded=0;whiteSpace=wrap;html=1;" vertex="1" parent="P0RO1G9cVQHnkUmIbz9D-1">
          <mxGeometry x="145" y="150" width="120" height="60" as="geometry" />
        </mxCell>
        <mxCell id="pPDkaiGAVWgl9LRCpvdI-1" value="" style="endArrow=classic;html=1;rounded=0;exitX=0.5;exitY=1;exitDx=0;exitDy=0;" edge="1" parent="P0RO1G9cVQHnkUmIbz9D-1" source="pPDkaiGAVWgl9LRCpvdI-0" target="P0RO1G9cVQHnkUmIbz9D-7">
          <mxGeometry width="50" height="50" relative="1" as="geometry">
            <mxPoint x="400" y="260" as="sourcePoint" />
            <mxPoint x="450" y="210" as="targetPoint" />
          </mxGeometry>
        </mxCell>
      </root>
    </mxGraphModel>
  </diagram>
</mxfile>
